<?xml version="1.0" encoding="iso-8859-1"?>
<!-- Uploaded to: SVG Repo, www.svgrepo.com, Generator: SVG Repo Mixer Tools -->
<!DOCTYPE svg PUBLIC "-//W3C//DTD SVG 1.1//EN" "http://www.w3.org/Graphics/SVG/1.1/DTD/svg11.dtd">
<svg fill="#000000" version="1.1" id="Capa_1" xmlns="http://www.w3.org/2000/svg" xmlns:xlink="http://www.w3.org/1999/xlink" 
	 width="800px" height="800px" viewBox="0 0 33.449 33.449"
	 xml:space="preserve">
<g>
	<path d="M24.823,4.714c-0.229-0.194-0.547-0.088-0.547-0.088s-0.554-1.374-0.847-2.1c-0.293-0.727,0.07-1.536-0.088-1.712
		c-0.159-0.177-0.592,0.943-0.592,0.943s-1.21-1.738-1.438-1.632c-0.229,0.106,0.564,1.024,0.512,1.2
		c-0.053,0.177-1.165-0.176-1.289,0.035c-0.124,0.212,1.024,0.247,1.165,0.441c0.142,0.194-1.183-0.088-1.059,0.141
		s0.953,0.229,1.111,0.335c0.159,0.106-0.353,0.547-0.247,0.67c0.106,0.124,0.389-0.229,0.389-0.229s0.52,0.447,0.847,0.529
		c0.211,0.053,0.265,1.465,0.265,1.465s-0.424,0-0.512,0.194C22.405,5.1,22.14,5.646,22.14,5.646l-4.464-0.912
		c0,0,0.158-0.217,0.034-0.34c-0.124-0.124-0.477-0.248-0.493-0.441C17.199,3.76,17.71,3.072,17.71,3.072s2.684,0.141,2.647-0.6
		c-0.036-0.741-2.364-1.04-2.364-1.04V0.708c0,0-0.247-0.635-1.826-0.701c-1.578-0.066-1.825,0.366-1.825,0.366v0.882
		c0,0-2.523,0.071-2.523,0.389c0,0.317,2.682,0.794,2.682,0.794s0,0.706,0,1.094c0,0.389,0.354,1.289,0.354,1.289
		s-1.006,0.335-1.817,0.794s-3.44,5.505-3.671,6.229c-0.229,0.724-0.67,1.711-0.653,2.47c0.018,0.759,0.953,1.482,0.953,1.482
		s0,0.364-0.104,0.564c-0.176,0.335-1.136-0.053-1.253,0.054c-0.233,0.211,0.775,0.44,0.794,0.582
		c0.018,0.141-0.989-0.263-0.953-0.106c0.053,0.229,0.708,0.311,0.794,0.459c0.141,0.247-0.934-0.109-0.865,0.07
		c0.143,0.371,1.165,0.248,1.023,0.406s-0.604,0.756-0.389,0.759c0.194,0.003,1.019-0.567,1.519-1.041
		c0.497-0.473,0.67-0.848,0.67-0.848h0.247l0.053-0.477c0,0,0.601,0.071,0.953-0.353c0.354-0.424-0.018-2.524,0.177-3
		c0.194-0.477,0.776-1.853,0.776-1.853s0.3,1.235,0.467,1.301c0.104,0.042,0.249,0.019,0.346-0.003l0.04,0.701
		c-0.591,0.642-0.677,1.618-0.8,2.289c-0.13,0.709-0.843,12.771-0.855,12.988c-0.014,0.217-1.694,1.456-1.762,1.732
		c-0.066,0.277,0.782,1.125,0.782,1.125s-0.186,0.318-0.053,0.478s1.8,1.456,2.118,1.402l0.291,0.238c0,0,0.874,0,1.111,0
		c0.238,0,0.478-0.212,0.478-0.212s0.396,0.397,0.741,0.397c0.344,0,1.11,0,1.879,0c0.768,0,1.456-0.477,1.456-0.477
		s0.025-0.424-0.291-0.396c-0.318,0.026-1.032,0.007-1.351,0c-0.317-0.007-0.538-0.312-0.715-0.503
		c-0.176-0.191-0.794-2.942-0.899-3.335c-0.058-0.213,2.003-4.817,2.806-8.471c0.598-2.722,0.245-4.793,0.146-5.27l0.064-0.01
		l0.461-1.993l-0.111,0.01l0.215-0.934l0.688-0.265l0.124-2.647c0,0,0.493,0.302,0.776,0.477c0.283,0.174,0.882,0.07,1.217-0.142
		c0.335-0.211,2.03-0.935,2.365-1.217c0.335-0.283,0.476-0.495,0.528-0.827C25.423,7.118,25.052,4.908,24.823,4.714z M14.797,12.187
		l-0.454,0.653c-0.12,0.007-0.285,0.061-0.285,0.061l-0.035-0.618C14.235,12.207,14.5,12.182,14.797,12.187z M16.895,19.117
		c-0.08,0.701-2.29,2.897-2.29,2.897l-0.516,2.819c0,0-0.292-0.648-0.874-0.939c0.016-0.279,0.065-1.138,0.065-1.138l-0.316,0.185
		c0.015-0.29,0.388-1.757,0.568-3.493c0.118-1.13,0.003-2.379,0.172-3.469c0.272-1.755,0.771-3.074,0.754-3.11l0.44-0.679
		c0.295,0.014,0.617,0.055,0.954,0.118c0.201,0.038,0.042,0.182,0.247,0.23l0.32,1.312C16.803,14.935,16.974,18.416,16.895,19.117z
		 M19.017,14.895c-0.954,0.144-2.005-0.901-2.468-1.026l-0.213-1.276c1.208,0.274,2.665,0.56,3.093,0.521L19.017,14.895z"/>
</g>
</svg>